<?xml version="1.0" encoding="UTF-8"?>
<!DOCTYPE svg PUBLIC "-//W3C//DTD SVG 1.1//EN" "http://www.w3.org/Graphics/SVG/1.1/DTD/svg11.dtd">
<!-- Creator: CorelDRAW X6 -->
<svg xmlns="http://www.w3.org/2000/svg" xml:space="preserve" width="170px" height="35px" version="1.1" style="shape-rendering:geometricPrecision; text-rendering:geometricPrecision; image-rendering:optimizeQuality; fill-rule:evenodd; clip-rule:evenodd"
viewBox="0 0 170 35"
 xmlns:xlink="http://www.w3.org/1999/xlink">
 <defs>
  <style type="text/css">
   <![CDATA[
    .fil0 {fill:#333333;fill-rule:nonzero}
    .fil1 {fill:red;fill-rule:nonzero}
   ]]>
  </style>
 </defs>
 <g id="Layer_x0020_1">
  <metadata id="CorelCorpID_0Corel-Layer"/>
  <g id="_412593328">
   <path class="fil0" d="M10 5l0 26 7 0 0 -9 12 0 0 -5 -12 0 0 -6 13 0 0 -5 -20 0zm36 6l0 10c0,3 -1,5 -4,5 -2,0 -3,-1 -3,-4l0 -11 -7 0 0 13c0,5 3,8 7,8 3,0 5,-1 6,-4l0 3 7 0 0 -20 -7 0zm25 0c-3,0 -5,1 -7,4l0 -3 -7 0 0 20 7 0 0 -11c0,-2 2,-4 4,-4 2,0 3,1 3,4l0 11 7 0 0 -13c0,-5 -3,-8 -7,-8zm26 -7l0 10c-1,-2 -4,-3 -6,-3 -6,0 -9,4 -9,10 0,6 4,11 9,11 3,0 5,-1 6,-3l0 3 7 0 0 -28 -7 0zm-4 23c-3,0 -4,-2 -4,-5 0,-3 2,-5 4,-5 3,0 4,2 4,5 0,3 -2,5 -4,5z"/>
   <path class="fil1" d="M109 5l0 26 6 0 0 -17 6 14 5 0 6 -14 0 17 6 0 0 -26 -8 0 -7 15 -7 -15 -7 0zm43 6c-6,0 -11,4 -11,10 0,6 4,10 11,10 4,0 7,-1 9,-4l-3 -3c-1,1 -3,2 -5,2 -2,0 -4,-1 -5,-4l14 0c0,-7 -3,-12 -10,-12zm-4 9c0,-2 2,-4 4,-4 2,0 4,2 4,4l-8 0z"/>
  </g>
 </g>
</svg>
