<?xml version="1.0" encoding="utf-8"?>
<!-- Generator: Adobe Illustrator 16.0.0, SVG Export Plug-In . SVG Version: 6.00 Build 0)  -->
<!DOCTYPE svg PUBLIC "-//W3C//DTD SVG 1.1//EN" "http://www.w3.org/Graphics/SVG/1.1/DTD/svg11.dtd">
<svg version="1.1" id="Layer_1" xmlns="http://www.w3.org/2000/svg" xmlns:xlink="http://www.w3.org/1999/xlink" x="0px" y="0px"
	 width="100px" height="25px" viewBox="0 0 100 25" enable-background="new 0 0 100 25" xml:space="preserve">
<g>
	<path fill="#3A3A3A" d="M13.956,4.735l-0.024,3.504H5.771v3.745h7.537v3.504H5.771v6.072H1.379V4.735H13.956z"/>
	<path fill="#3A3A3A" d="M28.62,8.575v12.985h-4.272v-2.112c-0.888,1.513-2.304,2.28-4.152,2.304c-2.808,0-4.632-1.943-4.632-4.968
		V8.575h4.272v6.985c0,1.463,0.816,2.352,2.088,2.352c1.512-0.023,2.424-1.225,2.424-2.928V8.575H28.62z"/>
	<path fill="#3A3A3A" d="M45.156,13.376v8.185h-4.249V14.6c0-1.464-0.864-2.376-2.208-2.376c-1.44,0.024-2.376,1.009-2.544,2.472
		v6.865h-4.272V8.575h4.272v2.112c0.912-1.488,2.4-2.28,4.296-2.28C43.284,8.407,45.156,10.328,45.156,13.376z"/>
	<path fill="#3A3A3A" d="M61.164,3.751v17.81h-4.272v-1.68c-0.888,1.199-2.208,1.848-3.841,1.848c-3.648,0-6.048-2.688-6.048-6.721
		c0-3.96,2.376-6.576,5.952-6.576c1.68,0,3.024,0.672,3.937,1.848V3.751H61.164z M56.892,15.128c0-1.944-1.128-3.24-2.784-3.24
		c-1.68,0-2.809,1.32-2.809,3.24c0,1.921,1.129,3.24,2.809,3.24C55.764,18.368,56.892,17.049,56.892,15.128z"/>
	<path fill="#ED1F24" d="M69.347,4.735l4.464,9.817l4.465-9.817h4.801v16.826h-3.889l-0.024-10.657l-3.912,8.977h-2.88l-3.912-8.977
		v10.657h-3.913V4.735H69.347z"/>
	<path fill="#ED1F24" d="M98.604,16.208h-9.025c0.408,1.464,1.488,2.28,2.952,2.28c1.104,0,2.185-0.456,3.049-1.32l2.232,2.232
		c-1.32,1.488-3.265,2.305-5.665,2.305c-4.248,0-6.864-2.617-6.864-6.577c0-4.032,2.712-6.696,6.769-6.696
		C96.587,8.432,98.892,11.479,98.604,16.208z M94.475,13.928c0-1.488-0.96-2.496-2.4-2.496c-1.392,0-2.304,1.008-2.592,2.496H94.475
		z"/>
</g>
</svg>
